PathFileType	4	(X/Y/Z)	T1_P1_Vision_Movement_3_0-659.trc
DataRate	CameraRate	NumFrames	NumMarkers	Units	OrigDataRate	OrigDataStartFrame	OrigNumFrames
60	60	7	27	m	60	494	659
Frame#	Time	RHip			RKnee			RAnkle			RBigToe			RSmallToe			RHeel			LHip			LKnee			LAnkle			LBigToe			LSmallToe			LHeel			Neck			Head			Nose			RShoulder			RElbow			RWrist			RThumb			RIndex			RPinky			LShoulder			LElbow			LWrist			LThumb			LIndex			LPinky		
		X1	Y1	Z1	X2	Y2	Z2	X3	Y3	Z3	X4	Y4	Z4	X5	Y5	Z5	X6	Y6	Z6	X7	Y7	Z7	X8	Y8	Z8	X9	Y9	Z9	X10	Y10	Z10	X11	Y11	Z11	X12	Y12	Z12	X13	Y13	Z13	X14	Y14	Z14	X15	Y15	Z15	X16	Y16	Z16	X17	Y17	Z17	X18	Y18	Z18	X19	Y19	Z19	X20	Y20	Z20	X21	Y21	Z21	X22	Y22	Z22	X23	Y23	Z23	X24	Y24	Z24	X25	Y25	Z25	X26	Y26	Z26	X27	Y27	Z27
495	8.25	-113.33996126932895	3954.967406341115	-654.2225462119991	237.83960149326467	4060.7374606611947	-667.4086210885617	600.7433721127071	4268.930223835401	-693.893131128581	686.8023042385814	4170.251051266167	-643.8145042182833	680.7708241948501	4156.818468853532	-703.991067626789	642.628009579557	4318.3696428474095	-699.2043919850238	-158.4338381269005	4063.4291418140174	-498.3906227223829	197.55606865362978	4178.399822103218	-499.10187904329985	559.4949069578037	4335.203756225358	-515.9540646817187	638.1558830087662	4220.508697732778	-400.68643756560436	616.6184370906489	4280.5861731305	-379.98123244530575	607.8083817453162	4375.879299480808	-541.3501322922077	-691.8392594375465	3773.988894766399	-585.5684522251586	-930.4454893664567	3599.4912259928997	-465.56352930137183	-780.5206708617237	3616.794163359533	-442.7232148823558	-580.3518324863779	3750.8708769546133	-726.1010069749991	-322.7489788761242	3820.998597860814	-756.0135525850723	-50.013366924361925	3872.440189911289	-731.9560866819243	62.396232403703465	3858.3458593500727	-613.7675411529437	78.77447279655104	3859.5843162530336	-622.9443143280906	86.53498998855079	3945.134307861491	-746.3745627603906	-635.2855683246069	3885.1879491725535	-462.0251343314385	-415.20366928349455	4110.716646018156	-444.50763563344975	-160.44375943273215	4094.1545078071194	-366.29110859580345	-40.91047194881179	4048.2318866581195	-373.0876146191579	-4.272025133845563	4126.056705740676	-365.57414117270287	-32.91321099211349	4149.126122098047	-330.2213593039373
496	8.266666666666667	-113.61388903153714	3946.719994488689	-651.9420769290371	239.28663418131543	4056.769367664683	-663.7805756883009	602.4943988564951	4274.091357696898	-697.6067106043627	686.5995461047484	4172.7157220652925	-644.0450450167173	678.6834817464844	4153.55734220799	-702.0412694199557	641.0703145461888	4317.580990706021	-699.3610388033231	-157.7147329496966	4063.6286535270087	-498.42254164423395	196.62500257830442	4167.909738317041	-495.73768641356867	560.2780496467932	4335.174092533115	-514.8752429842393	639.0413965115509	4225.387679843139	-402.6399934112815	615.7237060338738	4274.976868067821	-378.84610599220633	607.6728862521808	4375.688110276828	-539.7770759217503	-691.5537169312072	3772.475545679351	-585.1640662847631	-930.3409920536194	3599.2054957109067	-465.28743462457885	-780.5081736502327	3616.826957442773	-442.7445329216034	-580.1822488102464	3749.943087716645	-725.3768185749034	-321.88690757997847	3819.0510774955574	-758.1916793137325	-50.50658972774942	3872.725604327537	-731.9857963140441	62.30824757259233	3859.1064361724516	-614.0619289410555	78.02192979144553	3861.0283418895096	-621.7222947292108	85.46865408806681	3949.815367949099	-747.7219547206017	-635.2544478518245	3885.067175280318	-461.95180941013314	-415.26940572869285	4110.813211531013	-444.50804402809996	-162.67708138855085	4093.9060570201655	-366.52897573564564	-43.6173716875769	4057.6053090919886	-375.0991175972877	-5.404154836137217	4133.52925323126	-366.7730585206674	-33.320086684728544	4149.815738925696	-331.49184078323043
497	8.283333333333333	-115.30210853143727	3938.3342013357824	-649.6365026390691	242.11654870858547	4053.0828406657847	-660.5523356759954	605.7927944250312	4282.023796785714	-703.2971366902073	686.9798090690547	4176.883899488629	-645.0899523547204	677.3133625852678	4154.681705096392	-703.6246351012605	639.3350989776459	4316.842778826656	-699.6579273425133	-157.48034771534026	4063.3686406418346	-498.24417152927447	195.5875153717349	4160.667137160219	-493.62380619535867	560.639204842654	4335.05327594462	-514.1783548661238	638.8074809579664	4223.349871761263	-402.4503516039366	615.3437656392077	4272.06658040619	-378.27651065927716	607.5973872944472	4375.529355684725	-539.0070834777193	-690.8034274301526	3768.643614634257	-584.2038417084098	-930.1948768315111	3598.734971451209	-464.8149373868904	-779.8853882943954	3617.226806687526	-442.8766898204847	-580.0690606875092	3747.9668606606347	-723.8362884506379	-322.2455176597931	3822.9164386182883	-763.0153896191415	-51.29357049058909	3872.2399057363273	-731.757941251503	62.4522971726301	3860.147549344361	-614.6163139017298	77.13899455377098	3861.8040550340534	-620.8373096076851	84.46026517206745	3953.2714877187427	-748.8697034382236	-635.1758296619464	3884.6287072799314	-461.8271400637053	-415.69344484088793	4110.603915299133	-444.37826941736205	-164.64779900109983	4093.8750476044434	-366.76449409689826	-45.45005101502507	4071.9329695377046	-378.20044137775176	-5.822499425416638	4143.9927998304465	-368.6837765592301	-33.95650896021527	4150.5373423655055	-332.94499708563984
498	8.3	-116.58733032845787	3937.739627326411	-649.4816503741617	244.5466397718931	4049.5559633925945	-657.3660779850053	609.1452913621931	4288.481534367478	-707.8848097044196	687.5331179406404	4184.395763315721	-646.9031486004301	676.813210347058	4157.893858595711	-706.5365917786717	638.5249140292412	4316.615413346404	-699.9441219679964	-157.37605545638272	4063.0480356545713	-497.934260361091	195.13141557248028	4160.2464036195	-493.2770697014197	560.7126518446179	4335.028813435907	-514.013659923372	638.0671126800171	4218.239821650759	-401.35834305432616	615.8539372546583	4274.834115593499	-378.82595558728315	607.5748189715193	4375.488267479375	-538.9178041452553	-690.1204808230825	3765.6925937679434	-583.5307472565283	-930.169619491766	3598.727107913311	-464.6572236308101	-778.3841233658009	3618.129950622857	-443.16762831352304	-579.8221559093494	3745.3546272653834	-721.7313924721108	-323.144883801869	3827.407075759971	-766.9089513949209	-51.820586936014244	3871.36179493698	-731.4399194971926	62.39444970365517	3860.435701572485	-614.7599195246464	76.61703768181066	3861.9249989078767	-620.5664189374193	84.4726557271426	3954.705938881889	-749.4866898437704	-635.0614705731613	3883.94280987064	-461.68667112285016	-416.553513602983	4109.998019101087	-444.10490862607026	-165.01383997305766	4094.2370378543114	-366.84908937846143	-45.556270072172246	4081.4220624069308	-380.1425814454005	-5.3523585697034655	4151.801031452937	-370.33081003917715	-34.871719847713436	4150.853097772511	-334.3018876350178
499	8.316666666666666	-116.52220925271331	3945.5616681386628	-651.6551405620123	245.52328789870626	4046.4010286781145	-654.5865335382447	610.589941043937	4290.907578382064	-709.5890488257972	687.9236950277248	4192.323028828503	-648.7073813495855	677.4578460686082	4160.480859942835	-708.3035803685892	638.51810841162	4316.666509171251	-700.099121049139	-156.80153410718916	4063.1204228927418	-497.71176305939844	195.13751330547325	4161.9247166885325	-493.70604662044155	560.7668179875534	4335.122893553097	-514.2910639875399	637.5410895140087	4214.868029737062	-400.6258664832835	616.548550776332	4280.070684742723	-379.83258761552054	607.7045237968399	4375.646678211356	-539.2777709165277	-689.7785275885211	3764.403381400557	-583.3209948248359	-930.5645759330407	3600.565526700353	-466.00434501486154	-776.6504485745079	3619.2134811008514	-443.53221612107006	-579.5613521876995	3743.680259298766	-720.3480795871548	-323.69952606499305	3827.6969897406116	-766.9518502087285	-51.8522414061354	3871.3620977713717	-731.4087485406912	61.72909063234681	3858.3960304066973	-613.2748859600373	76.4517850394591	3861.8728424273945	-620.6541547122392	85.30696015213218	3954.6045602338872	-749.4046562614375	-635.043811875242	3883.88736252275	-461.7164002422386	-417.44210754912046	4109.327188845017	-443.8436889567072	-164.18993637455588	4094.716174983829	-366.8149373960026	-44.7106229103205	4079.648820778076	-379.7551320794884	-4.352926740308342	4153.237220143527	-370.85748033479956	-35.40156188278057	4150.821529355884	-335.2308447541223
500	8.333333333333334	-115.60402418357664	3954.3245885021097	-653.8792115472158	245.57470197654936	4044.5723247990154	-653.017175691524	609.20102289615	4288.788325446923	-708.0855183962013	687.9077760161802	4195.576984581122	-649.4102696398502	678.4643681760201	4161.620104028644	-708.6862455098145	638.7681941593388	4316.627420065159	-700.0709096452654	-155.49026936433182	4063.6787173430075	-497.65758324715574	195.94065446069087	4161.681168274007	-494.048694343082	560.9193860897992	4335.2258184063885	-515.012143806673	637.391001790891	4214.141641215922	-400.5608350231323	616.3911161293876	4283.049228829486	-380.328490800357	607.9640102788749	4375.9128977570335	-540.1413136488017	-690.1629477272071	3764.5934087142105	-583.3453410063203	-931.5730178404514	3605.186511234198	-469.97091802888167	-776.2072595167532	3619.8383504464	-443.7972522080715	-579.3811376453556	3743.230809854187	-719.9369840276315	-323.7281642899941	3822.6786102093347	-762.8358438743223	-51.375995936956244	3874.456199823838	-732.2832820559235	60.49630082645204	3853.1235094675244	-609.4032073410349	76.38864527336511	3861.9345463557524	-620.8873245501823	85.74105651324511	3952.340249482876	-747.7966466060102	-635.4370217483779	3886.544705267058	-462.31131343577306	-417.86657137416285	4109.046381681019	-443.7949986413394	-162.90704605334935	4095.0283115462644	-366.7605514395867	-43.949752370914084	4071.137806879505	-378.0194992548797	-3.3549626657734057	4150.132613251272	-370.4190441117689	-34.85810373805903	4150.852582185416	-335.52746882510365
501	8.35	-114.5656463041508	3957.4740654029056	-653.7605183338677	245.33568531473873	4044.381653805047	-652.9458965755038	605.7931330233599	4282.442218557007	-703.5620866217337	687.4061098902571	4193.213461891544	-648.8226319901067	678.226331184004	4161.51032861269	-708.6519959715584	638.9049808096277	4316.376774389709	-699.8977352772531	-153.94184298650885	4064.476627004721	-497.80745735474363	198.27544183516935	4162.927981406613	-494.86955530254363	561.0446037910363	4335.21019241512	-515.9495132983318	637.4498637067948	4214.664135684865	-400.88007520144214	615.1906411061706	4282.957338288686	-380.1308632764882	608.1179542981566	4376.035578905004	-541.436236507037	-691.9568754610249	3767.3794425329606	-583.532640072877	-932.8916534903117	3611.126855220805	-475.99866571753574	-778.1044417289633	3619.653373443425	-443.88192140722145	-579.26889341671	3741.91640726519	-718.8109283795028	-323.50966263153384	3815.143573563075	-756.9182347277715	-50.59691793372797	3882.0794645629894	-734.4507583407035	59.54600084749704	3846.4611639596524	-604.4194645690574	76.32385646707388	3862.1452542661186	-621.1783170463679	85.22123852521295	3947.065089205177	-743.8724225300075	-636.5099508481364	3893.6580291071764	-463.72713975063635	-417.6253870023842	4109.379770622609	-444.03910553097853	-161.2283071792176	4095.19017973404	-366.7137967147223	-43.26279606601313	4064.9923789386694	-376.66412950473585	-2.2949748066474056	4147.76105177093	-370.08507303137867	-33.13566374767328	4151.353782450833	-335.54314072791925
